
<svg xmlns="http://www.w3.org/2000/svg" viewBox="0 0 120 120">
  <circle cx="60" cy="60" r="58" fill="#ffffff" stroke="#0A4D9C" stroke-width="2"/>
  <path d="M60,20 C50,30 30,40 30,60 C30,80 45,100 60,100 C75,100 90,80 90,60 C90,40 70,30 60,20 Z" fill="#F9A826" fill-opacity="0.2" stroke="#0A4D9C" stroke-width="2"/>
  <circle cx="60" cy="60" r="15" fill="#0A4D9C"/>
  <path d="M60,30 L62,55 L70,45 Z" fill="#0A4D9C"/>
  <path d="M60,30 L58,55 L50,45 Z" fill="#0A4D9C"/>
  <path d="M75,35 L63,57 L80,55 Z" fill="#0A4D9C"/>
  <path d="M45,35 L57,57 L40,55 Z" fill="#0A4D9C"/>
  <path d="M78,50 L60,60 L80,70 Z" fill="#0A4D9C"/>
  <path d="M42,50 L60,60 L40,70 Z" fill="#0A4D9C"/>
  <path d="M70,80 L60,65 L72,60 Z" fill="#0A4D9C"/>
  <path d="M50,80 L60,65 L48,60 Z" fill="#0A4D9C"/>
  <path d="M60,85 L58,65 L62,65 Z" fill="#0A4D9C"/>
</svg>
